<svg xmlns="http://www.w3.org/2000/svg" xmlns:xlink="http://www.w3.org/1999/xlink" viewbox="0 0 254 134">
    <path class="skillJs__meter_yellow" fill-rule="evenodd" fill="rgb(255, 200, 21)" d="M-0.012,127.900 C-0.012,87.412 19.246,51.401 49.164,28.260 L84.006,70.609 C65.348,85.249 55.578,102.557 55.578,127.900 L-0.012,127.900 Z"></path>
    <path class="skillJs__meter_green" fill-rule="evenodd" fill="rgb(163, 205, 59)" d="M55.124,23.961 C75.704,9.497 100.862,0.961 128.036,0.961 C155.249,0.961 180.405,9.497 200.941,23.961 L166.423,67.001 C151.739,57.084 140.126,54.797 128.036,54.797 C115.980,54.797 101.848,59.155 89.684,67.001 L55.124,23.961 Z"></path>
    <path class="skillJs__meter_blue" fill-rule="evenodd" fill="rgb(0, 147, 215)" d="M205.248,28.260 C234.366,51.401 253.040,87.412 253.040,127.900 L199.053,127.900 C199.053,102.557 188.656,84.503 171.567,70.609 L205.248,28.260 Z"></path>
    <path class="skillJs__meter_arrow" fill-rule="evenodd" fill="rgb(62, 61, 64)" d="M137.657,129.858 C134.849,134.159 129.112,135.283 124.866,132.439 L83.835,94.997 L135.146,116.904 L135.146,116.904 C139.355,119.786 140.496,125.599 137.657,129.858 L137.657,129.858 Z" transform-origin="130 124" transform="rotate(-30)"></path>
</svg>
